<svg xmlns="http://www.w3.org/2000/svg" viewBox="0 0 512 512"
     width="512" height="512" role="img" aria-labelledby="t d">
  <title id="t">Dr. Cuack — científico</title>
  <desc id="d">Dr. Cuack con bata de laboratorio, gafas de seguridad y matraz burbujeante.</desc>
  <defs>
    <radialGradient id="gBody" gradientUnits="userSpaceOnUse" cx="226" cy="316" r="170">
      <stop offset="0%" stop-color="#FFE07A"/>
      <stop offset="55%" stop-color="#FFCF3F"/>
      <stop offset="100%" stop-color="#F0AE2B"/>
    </radialGradient>
    <radialGradient id="gHead" gradientUnits="userSpaceOnUse" cx="230" cy="120" r="210">
      <stop offset="0%" stop-color="#FFE38A"/>
      <stop offset="55%" stop-color="#FFD147"/>
      <stop offset="100%" stop-color="#F2B02C"/>
    </radialGradient>
    <linearGradient id="gBeak" x1="0" y1="0" x2="0" y2="1">
      <stop offset="0%" stop-color="#FFBE55"/>
      <stop offset="100%" stop-color="#EE8E1E"/>
    </linearGradient>
    <linearGradient id="gFoot" x1="0" y1="0" x2="0" y2="1">
      <stop offset="0%" stop-color="#F5AC42"/>
      <stop offset="100%" stop-color="#DE8B26"/>
    </linearGradient>
    <linearGradient id="gCoat" x1="0" y1="0" x2="0" y2="1">
      <stop offset="0%" stop-color="#FFFFFF"/>
      <stop offset="100%" stop-color="#E8EEF5"/>
    </linearGradient>
    <clipPath id="clipEyeL"><ellipse cx="210" cy="150" rx="27" ry="32"/></clipPath>
    <clipPath id="clipEyeR"><ellipse cx="302" cy="150" rx="27" ry="32"/></clipPath>
  </defs>

  <style>
    #duck { animation: bob 4.2s ease-in-out infinite; }
    #shadow { transform-box: view-box; transform-origin: 256px 480px;
              animation: shadowPulse 4.2s ease-in-out infinite; }
    #head { transform-box: view-box; transform-origin: 256px 288px;
            animation: tilt 6.4s ease-in-out infinite; }
    #hair path { transform-box: view-box; transform-origin: 254px 62px;
                 animation: sway 3.4s ease-in-out infinite; }
    #hair path:nth-child(2) { animation-delay: .35s; }
    #hair path:nth-child(3) { animation-delay: .7s; }
    .lid { transform-box: fill-box; transform-origin: 50% 0%;
           transform: scaleY(0); animation: blink 5.6s infinite; }
    @keyframes bob { 0%,100% { transform: translateY(0); } 50% { transform: translateY(5px); } }
    @keyframes shadowPulse { 0%,100% { transform: scale(1); opacity:.12 } 50% { transform: scale(1.06); opacity:.16 } }
    @keyframes tilt { 0%,100% { transform: rotate(0deg); } 30% { transform: rotate(-1.3deg); } 75% { transform: rotate(1.1deg); } }
    @keyframes sway { 0%,100% { transform: rotate(0deg); } 50% { transform: rotate(3deg); } }
    @keyframes blink { 0%, 90.5%, 94.5%, 100% { transform: scaleY(0); } 91.5%, 93.5% { transform: scaleY(1); } }
    /* clases opcionales: añadir en el elemento raíz del SVG */
    svg.talk #bill-lower, .talk #bill-lower { animation: talk .42s ease-in-out infinite; }
    #bill-lower { transform-box: view-box; transform-origin: 256px 248px; }
    @keyframes talk { 0%,100% { transform: translateY(0); } 50% { transform: translateY(6px); } }
    .wave #arm-up { animation: wave 1.1s ease-in-out infinite; }
    #arm-up { transform-box: view-box; transform-origin: 330px 320px; }
    @keyframes wave { 0%,100% { transform: rotate(0deg); } 50% { transform: rotate(-8deg); } }
    .bubble { animation: rise 2.6s ease-in infinite; }
    .bubble.b2 { animation-delay: .9s; }
    .bubble.b3 { animation-delay: 1.7s; }
    @keyframes rise { 0% { transform: translateY(0); opacity: 0; }
      25% { opacity: .95; } 100% { transform: translateY(-40px); opacity: 0; } }

    @media (prefers-reduced-motion: reduce) { * { animation: none !important; } }
  </style>

  <ellipse id="shadow" cx="256" cy="480" rx="130" ry="15" fill="#1B2430" opacity="0.12"/>

  <g id="duck">

    <!-- patas -->
    <g id="feet">
      <path d="M 172 474 C 168 446 186 430 210 430 C 234 430 250 446 246 474
               C 239 466 231 466 225 474 C 219 466 209 466 203 474 C 196 466 184 466 172 474 Z"
            fill="url(#gFoot)"/>
      <path d="M 266 474 C 262 446 278 430 302 430 C 326 430 344 446 340 474
               C 328 466 316 466 309 474 C 303 466 293 466 287 474 C 281 466 273 466 266 474 Z"
            fill="url(#gFoot)"/>
    </g>

    <!-- alas en reposo (detrás del cuerpo) -->
    <g id="wing-left">
      <path d="M 190 292 C 152 300 128 336 132 372 C 134 392 152 398 168 388
               C 192 372 204 336 204 304 Z" fill="url(#gCoat)"/>
      <ellipse cx="152" cy="376" rx="13" ry="11" fill="#F7C844" transform="rotate(24 152 376)"/>
    </g>
    <g id="wing-right">
      
    </g>

    <!-- cuerpo -->
    <g id="body">
      <path d="M 256 256 C 198 258 168 306 164 358 C 160 406 200 442 256 442
               C 312 442 352 406 348 358 C 344 306 314 258 256 256 Z" fill="url(#gBody)"/>
      <ellipse cx="256" cy="378" rx="62" ry="48" fill="#FFE9A8"/>
      <path d="M 176 388 C 188 426 220 440 256 440 C 292 440 324 426 336 388
               C 328 430 296 446 256 446 C 216 446 184 430 176 388 Z" fill="#DE9A1E" opacity="0.35"/>
    </g>
    <!-- bata blanca -->
    <g id="coat">
      <path d="M 256 262 C 196 264 162 310 158 360 C 154 412 198 446 256 446
               C 314 446 358 412 354 360 C 350 310 316 264 256 262 Z" fill="url(#gCoat)"/>
      <path d="M 234 266 L 278 266 C 288 320 290 380 286 442 L 226 442 C 222 380 224 320 234 266 Z"
            fill="url(#gBody)"/>
      <ellipse cx="256" cy="394" rx="34" ry="46" fill="#FFE9A8"/>
      <path d="M 236 266 L 214 302 L 244 322 L 250 280 Z" fill="#FFFFFF" stroke="#D9E2EB" stroke-width="2.5"/>
      <path d="M 276 266 L 298 302 L 268 322 L 262 280 Z" fill="#FFFFFF" stroke="#D9E2EB" stroke-width="2.5"/>
      <path d="M 168 380 C 176 416 204 438 232 442 C 200 442 172 424 162 392 Z" fill="#C9D4E0" opacity=".7"/>
      <path d="M 344 380 C 336 416 308 438 280 442 C 312 442 340 424 350 392 Z" fill="#C9D4E0" opacity=".7"/>
    </g>
    <g id="pocket">
      <rect x="192" y="356" width="36" height="28" rx="4" fill="#FFFFFF" stroke="#D9E2EB" stroke-width="2.5"/>
      <rect x="199" y="342" width="7" height="18" rx="2.5" fill="#1E4078"/>
      <rect x="210" y="344" width="7" height="16" rx="2.5" fill="#A54B2D"/>
    </g>

    <!-- cabeza -->
    <g id="head">
      <path d="M 256 56 C 184 56 150 114 150 184 C 150 250 194 294 256 294
               C 318 294 362 250 362 184 C 362 114 328 56 256 56 Z" fill="url(#gHead)"/>
      <ellipse cx="212" cy="108" rx="48" ry="34" fill="#FFFFFF" opacity="0.16"/>
      <!-- mechones -->
      <g id="hair" fill="none" stroke="#2F2A26" stroke-width="5" stroke-linecap="round">
        <path d="M 252 58 C 248 36 252 20 268 10"/>
        <path d="M 238 62 C 230 44 230 28 244 16"/>
        <path d="M 268 60 C 272 40 284 26 302 22"/>
      </g>

      <!-- mejillas -->
      <ellipse cx="172" cy="176" rx="13" ry="9" fill="#FFAC55" opacity="0.5"/>
      <ellipse cx="340" cy="176" rx="13" ry="9" fill="#FFAC55" opacity="0.5"/>

      <!-- ojos -->
      <g id="eye-left">
        <ellipse cx="210" cy="150" rx="27" ry="32" fill="#FFFFFF"/>
        <path d="M 183 150 A 27 32 0 0 1 237 150" fill="none" stroke="#D8D2C4" stroke-width="3" opacity=".6"/>
        <circle cx="215" cy="153" r="12.5" fill="#33261B"/>
        <circle cx="211" cy="148" r="4" fill="#FFFFFF"/>
        <circle cx="219" cy="158" r="2" fill="#FFFFFF" opacity="0.8"/>
        <g clip-path="url(#clipEyeL)"><ellipse class="lid" cx="210" cy="150" rx="28" ry="33" fill="#F6C74A"/></g>
      </g>
      <g id="eye-right">
        <ellipse cx="302" cy="150" rx="27" ry="32" fill="#FFFFFF"/>
        <path d="M 275 150 A 27 32 0 0 1 329 150" fill="none" stroke="#D8D2C4" stroke-width="3" opacity=".6"/>
        <circle cx="297" cy="153" r="12.5" fill="#33261B"/>
        <circle cx="293" cy="148" r="4" fill="#FFFFFF"/>
        <circle cx="301" cy="158" r="2" fill="#FFFFFF" opacity="0.8"/>
        <g clip-path="url(#clipEyeR)"><ellipse class="lid" cx="302" cy="150" rx="28" ry="33" fill="#F6C74A"/></g>
      </g>

      <!-- cejas -->
      <g fill="none" stroke="#8A6414" stroke-width="6" stroke-linecap="round">
        <path d="M 186 108 C 196 100 214 98 228 104"/>
        <path d="M 284 104 C 298 98 316 100 326 108"/>
      </g>

      <!-- pico -->
      <g id="beak" transform="translate(0 7)">
        <!-- mandíbula inferior: profunda, con sombra en el borde -->
        <path id="bill-lower" d="M 156 244 C 192 258 320 258 356 244
                 C 352 262 330 275 300 280 C 272 284 240 284 212 280
                 C 182 275 160 262 156 244 Z" fill="#DD831A"/>
        <path d="M 172 264 C 196 276 316 276 340 264 C 322 277 288 283 256 283
                 C 224 283 190 277 172 264 Z" fill="#C06E0C" opacity=".8"/>
        <!-- pico superior -->
        <path d="M 124 210 C 128 192 176 184 256 184 C 336 184 384 192 388 210
                 C 391 224 380 238 356 246 C 322 255 190 255 156 246
                 C 132 238 121 224 124 210 Z" fill="url(#gBeak)"/>
        <!-- boca: curva en S con comisuras hacia arriba -->
        <g fill="none" stroke="#A96409" stroke-width="4" stroke-linecap="round">
          <path d="M 140 220 C 150 234 176 243 212 247 C 241 250 271 250 300 247
                   C 336 243 362 234 372 220"/>
          <path d="M 141 221 Q 132 216 134 206"/>
          <path d="M 371 221 Q 380 216 378 206"/>
        </g>
        <!-- orificios nasales sobre el pico -->
        <g id="nostrils">
          <ellipse cx="233" cy="204" rx="6.5" ry="3.6" fill="#9E5605" transform="rotate(-16 233 204)"/>
          <ellipse cx="279" cy="204" rx="6.5" ry="3.6" fill="#9E5605" transform="rotate(16 279 204)"/>
          <path d="M 227 208 Q 233 211 240 207" fill="none" stroke="#FFD98F" stroke-width="2" opacity=".7"/>
          <path d="M 272 207 Q 279 211 285 208" fill="none" stroke="#FFD98F" stroke-width="2" opacity=".7"/>
        </g>
        <path d="M 152 203 C 170 194 208 189 250 188" fill="none" stroke="#FFE1A6" stroke-width="7" stroke-linecap="round" opacity="0.6"/>
      </g>

      <!-- gafas -->
      <g id="glasses" fill="none" stroke="#23303E" stroke-width="5">
        <circle cx="210" cy="150" r="34" fill="#AAD7FF" fill-opacity="0.14"/>
        <circle cx="302" cy="150" r="34" fill="#AAD7FF" fill-opacity="0.14"/>
        <path d="M 244 146 C 250 140 262 140 268 146"/>
        <path d="M 176 146 L 156 152"/>
        <path d="M 336 146 L 356 152"/>
        <path d="M 190 132 A 26 26 0 0 1 206 122" stroke="#FFFFFF" stroke-width="3" opacity=".65"/>
        <path d="M 282 132 A 26 26 0 0 1 298 122" stroke="#FFFFFF" stroke-width="3" opacity=".65"/>
      </g>
      <g id="goggles">
        <path d="M 158 104 C 198 80 314 80 354 104" fill="none" stroke="#37474F" stroke-width="9"/>
        <rect x="196" y="66" width="120" height="42" rx="21" fill="#AEE3F7" fill-opacity=".85"
              stroke="#37474F" stroke-width="6"/>
        <path d="M 214 80 C 230 74 250 72 268 74" stroke="#FFFFFF" stroke-width="5"
              stroke-linecap="round" fill="none" opacity=".8"/>
      </g>
    </g>
    <g id="arm-up">
      <path d="M 330 322 C 362 314 390 292 398 262 C 402 246 390 237 376 244
             C 352 256 332 284 324 316 Z" fill="url(#gCoat)"/>
      <ellipse cx="390" cy="256" rx="13" ry="11" fill="#F7C844" transform="rotate(-32 390 256)"/>
      <g id="flask" transform="translate(-12 28) rotate(-8 408 200)">
        <path d="M 399 152 L 399 180 L 380 214 Q 375 223 385 223 L 431 223 Q 441 223 436 214
                 L 417 180 L 417 152 Z" fill="#D2EBFA" fill-opacity=".55" stroke="#7FA8C9" stroke-width="3.5"
              stroke-linejoin="round"/>
        <path d="M 389 198 L 380 214 Q 375 223 385 223 L 431 223 Q 441 223 436 214 L 427 198 Z"
              fill="#17A673" fill-opacity=".9"/>
        <rect x="394" y="146" width="28" height="8" rx="4" fill="#7FA8C9"/>
        <circle class="bubble" cx="401" cy="212" r="3.4" fill="#BFF3DE"/>
        <circle class="bubble b2" cx="412" cy="216" r="2.6" fill="#BFF3DE"/>
        <circle class="bubble b3" cx="422" cy="211" r="3" fill="#BFF3DE"/>
      </g>
    </g>
  </g>
</svg>
