<svg xmlns="http://www.w3.org/2000/svg" width="512" height="512" aria-label="Sticker Dr. Cuack: aqui-mando-yo" viewBox="0 0 512 512"><defs><linearGradient id="gBeak" x1="0" x2="0" y1="0" y2="1"><stop offset="0%" stop-color="#ffbe55"/><stop offset="100%" stop-color="#ee8e1e"/></linearGradient><linearGradient id="gFoot" x1="0" x2="0" y1="0" y2="1"><stop offset="0%" stop-color="#f5ac42"/><stop offset="100%" stop-color="#de8b26"/></linearGradient><linearGradient id="gCoat" x1="0" x2="0" y1="0" y2="1"><stop offset="0%" stop-color="#fff"/><stop offset="100%" stop-color="#e8eef5"/></linearGradient><radialGradient id="gBody" cx="226" cy="316" r="170" gradientUnits="userSpaceOnUse"><stop offset="0%" stop-color="#ffe07a"/><stop offset="55%" stop-color="#ffcf3f"/><stop offset="100%" stop-color="#f0ae2b"/></radialGradient><radialGradient id="gHead" cx="230" cy="120" r="210" gradientUnits="userSpaceOnUse"><stop offset="0%" stop-color="#ffe38a"/><stop offset="55%" stop-color="#ffd147"/><stop offset="100%" stop-color="#f2b02c"/></radialGradient><clipPath id="clipEyeL"><ellipse cx="210" cy="150" rx="27" ry="32"/></clipPath><clipPath id="clipEyeR"><ellipse cx="302" cy="150" rx="27" ry="32"/></clipPath><filter id="diecut" width="124%" height="124%" x="-12%" y="-12%"><feMorphology in="SourceAlpha" operator="dilate" radius="11" result="grow"/><feFlood flood-color="#fff"/><feComposite in2="grow" operator="in" result="border"/><feMerge><feMergeNode in="border"/><feMergeNode in="SourceGraphic"/></feMerge></filter><filter id="stickershadow" width="132%" height="132%" x="-16%" y="-16%"><feDropShadow dx="0" dy="7" flood-color="#1b2430" flood-opacity=".35" stdDeviation="9"/></filter></defs><style>#duck { animation: bob 4.2s ease-in-out infinite; }
    #shadow { transform-box: view-box; transform-origin: 256px 480px;
              animation: shadowPulse 4.2s ease-in-out infinite; }
    #head { transform-box: view-box; transform-origin: 256px 288px;
            animation: tilt 6.4s ease-in-out infinite; }
    #hair path { transform-box: view-box; transform-origin: 254px 62px;
                 animation: sway 3.4s ease-in-out infinite; }
    #hair path:nth-child(2) { animation-delay: .35s; }
    #hair path:nth-child(3) { animation-delay: .7s; }
    .lid { transform-box: fill-box; transform-origin: 50% 0%;
           transform: scaleY(0); animation: blink 5.6s infinite; }
    @keyframes bob { 0%,100% { transform: translateY(0); } 50% { transform: translateY(5px); } }
    @keyframes shadowPulse { 0%,100% { transform: scale(1); opacity:.12 } 50% { transform: scale(1.06); opacity:.16 } }
    @keyframes tilt { 0%,100% { transform: rotate(0deg); } 30% { transform: rotate(-1.3deg); } 75% { transform: rotate(1.1deg); } }
    @keyframes sway { 0%,100% { transform: rotate(0deg); } 50% { transform: rotate(3deg); } }
    @keyframes blink { 0%, 90.5%, 94.5%, 100% { transform: scaleY(0); } 91.5%, 93.5% { transform: scaleY(1); } }
    /* clases opcionales: añadir en el elemento raíz del SVG */
    svg.talk #bill-lower, .talk #bill-lower { animation: talk .42s ease-in-out infinite; }
    #bill-lower { transform-box: view-box; transform-origin: 256px 248px; }
    @keyframes talk { 0%,100% { transform: translateY(0); } 50% { transform: translateY(6px); } }
    .wave #arm-up { animation: wave 1.1s ease-in-out infinite; }
    #arm-up { transform-box: view-box; transform-origin: 330px 320px; }
    @keyframes wave { 0%,100% { transform: rotate(0deg); } 50% { transform: rotate(-8deg); } }

    @media (prefers-reduced-motion: reduce) { * { animation: none !important; } }
      .meme { font-family: &apos;Archivo Black&apos;,&apos;Arial Black&apos;,&apos;DejaVu Sans&apos;,sans-serif;
      font-weight: 900; fill: #FFFFFF; stroke: #1B2430; stroke-width: 9px;
      paint-order: stroke; stroke-linejoin: round; letter-spacing: .5px;
      text-anchor: middle; }</style><g filter="url(#stickershadow)"><g filter="url(#diecut)"><g transform="matrix(.8 0 0 .8 51 8)"><g id="duck"><g id="feet"><path fill="url(#gFoot)" d="M172 474c-4-28 14-44 38-44s40 16 36 44c-7-8-15-8-21 0-6-8-16-8-22 0-7-8-19-8-31 0"/><path fill="url(#gFoot)" d="M266 474c-4-28 12-44 36-44s42 16 38 44c-12-8-24-8-31 0-6-8-16-8-22 0-6-8-14-8-21 0"/></g><g id="wing-left"><path fill="#2b3440" d="M190 292c-38 8-62 44-58 80 2 20 20 26 36 16 24-16 36-52 36-84Z"/><ellipse cx="152" cy="376" fill="#f7c844" rx="13" ry="11" transform="rotate(24 152 376)"/></g><g id="wing-right"><path fill="#2b3440" d="M322 292c38 8 62 44 58 80-2 20-20 26-36 16-24-16-36-52-36-84Z"/><ellipse cx="360" cy="376" fill="#f7c844" rx="13" ry="11" transform="rotate(-24 360 376)"/></g><g id="body"><path fill="url(#gBody)" d="M256 256c-58 2-88 50-92 102-4 48 36 84 92 84s96-36 92-84c-4-52-34-100-92-102"/><ellipse cx="256" cy="378" fill="#ffe9a8" rx="62" ry="48"/><path fill="#de9a1e" d="M176 388c12 38 44 52 80 52s68-14 80-52c-8 42-40 58-80 58s-72-16-80-58" opacity=".35"/></g><g id="vest"><path fill="#2b3440" d="M256 260c-58 2-86 48-90 98s36 84 90 84 94-34 90-84-32-96-90-98"/><path fill="none" stroke="#8a94a6" stroke-width="2" d="M208 272c-6 50-6 108 0 162m24-170c-5 58-5 120 0 176m48-176c5 58 5 120 0 176m24-168c6 50 6 108 0 162" opacity=".45"/><path fill="#f4f7fa" d="m256 262-32 2c14 32 26 54 32 70 6-16 18-38 32-70Z"/><path fill="none" stroke="#222b38" stroke-width="5" d="M224 264c14 32 26 54 32 70 6-16 18-38 32-70"/><path fill="#222b38" d="M176 384c14 40 46 56 80 56s66-16 80-56c-6 44-40 62-80 62s-74-18-80-62"/></g><g id="corbata"><path fill="#fdfbf4" d="m230 290 26 10-18 14Zm52 0-26 10 18 14Z"/><path fill="#a54b2d" d="m256 300-14 16 10 66 4 8 4-8 10-66Z"/><path fill="#8c3d22" d="M245 296h22l-5 16h-12Z"/></g><g id="head"><path fill="url(#gHead)" d="M256 56c-72 0-106 58-106 128 0 66 44 110 106 110s106-44 106-110c0-70-34-128-106-128"/><ellipse cx="212" cy="108" fill="#fff" opacity=".16" rx="48" ry="34"/><ellipse cx="172" cy="176" fill="#ffac55" opacity=".5" rx="13" ry="9"/><ellipse cx="340" cy="176" fill="#ffac55" opacity=".5" rx="13" ry="9"/><g id="eye-left"><ellipse cx="210" cy="150" fill="#fff" rx="27" ry="32"/><path fill="none" stroke="#d8d2c4" stroke-width="3" d="M183 150a27 32 0 0 1 54 0" opacity=".6"/><circle cx="215" cy="153" r="12.5" fill="#33261b"/><circle cx="211" cy="148" r="4" fill="#fff"/><circle cx="219" cy="158" r="2" fill="#fff" opacity=".8"/><g clip-path="url(#clipEyeL)"><ellipse cx="210" cy="150" fill="#f6c74a" class="lid" rx="28" ry="33"/></g></g><g id="eye-right"><ellipse cx="302" cy="150" fill="#fff" rx="27" ry="32"/><path fill="none" stroke="#d8d2c4" stroke-width="3" d="M275 150a27 32 0 0 1 54 0" opacity=".6"/><circle cx="297" cy="153" r="12.5" fill="#33261b"/><circle cx="293" cy="148" r="4" fill="#fff"/><circle cx="301" cy="158" r="2" fill="#fff" opacity=".8"/><g clip-path="url(#clipEyeR)"><ellipse cx="302" cy="150" fill="#f6c74a" class="lid" rx="28" ry="33"/></g></g><path fill="none" stroke="#8a6414" stroke-linecap="round" stroke-width="6" d="M186 108c10-8 28-10 42-4m56 0c14-6 32-4 42 4"/><g id="beak" transform="translate(0 7)"><path id="bill-lower" fill="#dd831a" d="M156 244c36 14 164 14 200 0-4 18-26 31-56 36-28 4-60 4-88 0-30-5-52-18-56-36"/><path fill="#c06e0c" d="M172 264c24 12 144 12 168 0-18 13-52 19-84 19s-66-6-84-19" opacity=".8"/><path fill="url(#gBeak)" d="M124 210c4-18 52-26 132-26s128 8 132 26c3 14-8 28-32 36-34 9-166 9-200 0-24-8-35-22-32-36"/><g fill="none" stroke="#a96409" stroke-linecap="round" stroke-width="4"><path d="M140 220c10 14 36 23 72 27 29 3 59 3 88 0 36-4 62-13 72-27"/><path d="M141 221q-9-5-7-15m237 15q9-5 7-15"/></g><g id="nostrils"><ellipse cx="233" cy="204" fill="#9e5605" rx="6.5" ry="3.6" transform="rotate(-16 233 204)"/><ellipse cx="279" cy="204" fill="#9e5605" rx="6.5" ry="3.6" transform="rotate(16 279 204)"/><path fill="none" stroke="#ffd98f" stroke-width="2" d="M227 208q6 3 13-1m32 0q7 4 13 1" opacity=".7"/></g><path fill="none" stroke="#ffe1a6" stroke-linecap="round" stroke-width="7" d="M152 203c18-9 56-14 98-15" opacity=".6"/></g><g id="shades"><rect width="64" height="46" x="177" y="127" fill="#1b2430" rx="17"/><rect width="64" height="46" x="271" y="127" fill="#1b2430" rx="17"/><path fill="none" stroke="#1b2430" stroke-width="6" d="M240 140c8-7 24-7 32 0"/><path stroke="#1b2430" stroke-width="6" d="m178 144-20 6m176-6 20 6"/><path stroke="#5c6b7e" stroke-linecap="round" stroke-width="4" d="m190 140 16-6m78 6 16-6" opacity=".8"/></g><g id="fedora"><path fill="#23303e" d="M138 106c10-16 58-24 118-24s108 8 118 24c8 11-4 20-20 15-52-13-144-13-196 0-16 5-28-4-20-15"/><path fill="#2b3949" d="M180 100c0-44 26-60 76-60s76 16 76 60c-28-10-124-10-152 0"/><path fill="none" stroke="#1b2430" stroke-width="4" d="M256 42c-10 14-10 34-2 46" opacity=".55"/><path fill="#a54b2d" d="M180 100c28-11 124-11 152 0v16c-28-12-124-12-152 0Z"/></g><path stroke="#f1e3c0" stroke-linecap="round" stroke-width="4.5" d="m348 240 28-12"/></g></g></g><text x="256" y="478" class="meme" font-size="48">AQUÍ MANDO YO</text></g></g></svg>