<?xml version="1.0" encoding="UTF-8"?>
<svg xmlns="http://www.w3.org/2000/svg" xmlns:xlink="http://www.w3.org/1999/xlink" width="111.009pt" height="118.946pt" viewBox="0 0 111.009 118.946">
<path fill-rule="nonzero" fill="rgb(85.096741%, 70.196533%, 54.116821%)" fill-opacity="1" stroke-width="2.09218" stroke-linecap="round" stroke-linejoin="round" stroke="rgb(43.136597%, 30.587769%, 20.391846%)" stroke-opacity="1" stroke-miterlimit="10" d="M -16.4396 36.850134 C -16.4396 42.17459 -20.755128 46.490118 -26.079584 46.490118 C -31.400099 46.490118 -35.715627 42.17459 -35.715627 36.850134 C -35.715627 31.52962 -31.400099 27.214091 -26.079584 27.214091 C -20.755128 27.214091 -16.4396 31.52962 -16.4396 36.850134 Z M -16.4396 36.850134 " transform="matrix(0.991152, 0, 0, -0.991152, 55.012889, 55.512357)"/>
<path fill-rule="nonzero" fill="rgb(85.096741%, 70.196533%, 54.116821%)" fill-opacity="1" stroke-width="2.09218" stroke-linecap="round" stroke-linejoin="round" stroke="rgb(43.136597%, 30.587769%, 20.391846%)" stroke-opacity="1" stroke-miterlimit="10" d="M 35.717207 36.850134 C 35.717207 42.17459 31.401679 46.490118 26.077223 46.490118 C 20.756709 46.490118 16.44118 42.17459 16.44118 36.850134 C 16.44118 31.52962 20.756709 27.214091 26.077223 27.214091 C 31.401679 27.214091 35.717207 31.52962 35.717207 36.850134 Z M 35.717207 36.850134 " transform="matrix(0.991152, 0, 0, -0.991152, 55.012889, 55.512357)"/>
<path fill-rule="nonzero" fill="rgb(77.645874%, 60.392761%, 41.569519%)" fill-opacity="1" d="M 33.941406 18.707031 C 33.941406 16.070312 31.800781 13.929688 29.164062 13.929688 C 26.527344 13.929688 24.386719 16.070312 24.386719 18.707031 C 24.386719 21.34375 26.527344 23.484375 29.164062 23.484375 C 31.800781 23.484375 33.941406 21.34375 33.941406 18.707031 Z M 33.941406 18.707031 "/>
<path fill-rule="nonzero" fill="rgb(77.645874%, 60.392761%, 41.569519%)" fill-opacity="1" d="M 85.636719 18.707031 C 85.636719 16.070312 83.5 13.929688 80.859375 13.929688 C 78.222656 13.929688 76.085938 16.070312 76.085938 18.707031 C 76.085938 21.34375 78.222656 23.484375 80.859375 23.484375 C 83.5 23.484375 85.636719 21.34375 85.636719 18.707031 Z M 85.636719 18.707031 "/>
<path fill-rule="nonzero" fill="rgb(85.096741%, 70.196533%, 54.116821%)" fill-opacity="1" stroke-width="2.09218" stroke-linecap="round" stroke-linejoin="round" stroke="rgb(43.136597%, 30.587769%, 20.391846%)" stroke-opacity="1" stroke-miterlimit="10" d="M -42.521944 -7.653014 L -42.521944 1.983029 C -42.521944 23.119265 -25.385947 40.251322 -4.253651 40.251322 L 4.25129 40.251322 C 25.387527 40.251322 42.519584 23.119265 42.519584 1.983029 L 42.519584 -7.653014 C 42.519584 -28.789251 25.387527 -45.921308 4.25129 -45.921308 L -4.253651 -45.921308 C -25.385947 -45.921308 -42.521944 -28.789251 -42.521944 -7.653014 Z M -42.521944 -7.653014 " transform="matrix(0.991152, 0, 0, -0.991152, 55.012889, 55.512357)"/>
<path fill-rule="nonzero" fill="rgb(77.645874%, 60.392761%, 41.569519%)" fill-opacity="1" stroke-width="2.09218" stroke-linecap="round" stroke-linejoin="round" stroke="rgb(43.136597%, 30.587769%, 20.391846%)" stroke-opacity="1" stroke-miterlimit="10" d="M -5.668514 -45.353786 C -5.668514 -40.34462 -10.744679 -36.285265 -17.007121 -36.285265 C -23.269564 -36.285265 -28.345729 -40.34462 -28.345729 -45.353786 C -28.345729 -50.366893 -23.269564 -54.426249 -17.007121 -54.426249 C -10.744679 -54.426249 -5.668514 -50.366893 -5.668514 -45.353786 Z M -5.668514 -45.353786 " transform="matrix(0.991152, 0, 0, -0.991152, 55.012889, 55.512357)"/>
<path fill-rule="nonzero" fill="rgb(77.645874%, 60.392761%, 41.569519%)" fill-opacity="1" stroke-width="2.09218" stroke-linecap="round" stroke-linejoin="round" stroke="rgb(43.136597%, 30.587769%, 20.391846%)" stroke-opacity="1" stroke-miterlimit="10" d="M 28.347309 -45.353786 C 28.347309 -40.34462 23.271144 -36.285265 17.008702 -36.285265 C 10.746259 -36.285265 5.670094 -40.34462 5.670094 -45.353786 C 5.670094 -50.366893 10.746259 -54.426249 17.008702 -54.426249 C 23.271144 -54.426249 28.347309 -50.366893 28.347309 -45.353786 Z M 28.347309 -45.353786 " transform="matrix(0.991152, 0, 0, -0.991152, 55.012889, 55.512357)"/>
<path fill-rule="nonzero" fill="rgb(85.096741%, 70.196533%, 54.116821%)" fill-opacity="1" stroke-width="2.09218" stroke-linecap="round" stroke-linejoin="round" stroke="rgb(43.136597%, 30.587769%, 20.391846%)" stroke-opacity="1" stroke-miterlimit="10" d="M -29.480772 -18.707861 C -29.480772 -12.445419 -33.287896 -7.369254 -37.985713 -7.369254 C -42.679589 -7.369254 -46.490654 -12.445419 -46.490654 -18.707861 C -46.490654 -24.970304 -42.679589 -30.046469 -37.985713 -30.046469 C -33.287896 -30.046469 -29.480772 -24.970304 -29.480772 -18.707861 Z M -29.480772 -18.707861 " transform="matrix(0.991152, 0, 0, -0.991152, 55.012889, 55.512357)"/>
<path fill-rule="nonzero" fill="rgb(85.096741%, 70.196533%, 54.116821%)" fill-opacity="1" stroke-width="2.09218" stroke-linecap="round" stroke-linejoin="round" stroke="rgb(43.136597%, 30.587769%, 20.391846%)" stroke-opacity="1" stroke-miterlimit="10" d="M 46.488293 -18.707861 C 46.488293 -12.445419 42.68117 -7.369254 37.983352 -7.369254 C 33.289476 -7.369254 29.482352 -12.445419 29.482352 -18.707861 C 29.482352 -24.970304 33.289476 -30.046469 37.983352 -30.046469 C 42.68117 -30.046469 46.488293 -24.970304 46.488293 -18.707861 Z M 46.488293 -18.707861 " transform="matrix(0.991152, 0, 0, -0.991152, 55.012889, 55.512357)"/>
<path fill-rule="nonzero" fill="rgb(95.292664%, 71.763611%, 69.018555%)" fill-opacity="1" d="M 34.222656 56.074219 C 34.222656 53.4375 30.953125 51.296875 26.917969 51.296875 C 22.882812 51.296875 19.613281 53.4375 19.613281 56.074219 C 19.613281 58.710938 22.882812 60.851562 26.917969 60.851562 C 30.953125 60.851562 34.222656 58.710938 34.222656 56.074219 Z M 34.222656 56.074219 "/>
<path fill-rule="nonzero" fill="rgb(95.292664%, 71.763611%, 69.018555%)" fill-opacity="1" d="M 90.414062 56.074219 C 90.414062 53.4375 87.144531 51.296875 83.109375 51.296875 C 79.074219 51.296875 75.804688 53.4375 75.804688 56.074219 C 75.804688 58.710938 79.074219 60.851562 83.109375 60.851562 C 87.144531 60.851562 90.414062 58.710938 90.414062 56.074219 Z M 90.414062 56.074219 "/>
<path fill-rule="nonzero" fill="rgb(29.019165%, 20.783997%, 14.901733%)" fill-opacity="1" d="M 49.675781 41.464844 C 49.675781 36.035156 45.273438 31.628906 39.839844 31.628906 C 34.410156 31.628906 30.007812 36.035156 30.007812 41.464844 C 30.007812 46.894531 34.410156 51.296875 39.839844 51.296875 C 45.273438 51.296875 49.675781 46.894531 49.675781 41.464844 Z M 49.675781 41.464844 "/>
<path fill-rule="nonzero" fill="rgb(100%, 100%, 100%)" fill-opacity="1" d="M 46.726562 36.96875 C 46.726562 34.875 45.027344 33.175781 42.933594 33.175781 C 40.835938 33.175781 39.140625 34.875 39.140625 36.96875 C 39.140625 39.0625 40.835938 40.761719 42.933594 40.761719 C 45.027344 40.761719 46.726562 39.0625 46.726562 36.96875 Z M 46.726562 36.96875 "/>
<path fill-rule="nonzero" fill="rgb(100%, 100%, 100%)" fill-opacity="1" d="M 38.4375 44.273438 C 38.4375 43.1875 37.554688 42.308594 36.46875 42.308594 C 35.382812 42.308594 34.503906 43.1875 34.503906 44.273438 C 34.503906 45.359375 35.382812 46.242188 36.46875 46.242188 C 37.554688 46.242188 38.4375 45.359375 38.4375 44.273438 Z M 38.4375 44.273438 "/>
<path fill-rule="nonzero" fill="rgb(29.019165%, 20.783997%, 14.901733%)" fill-opacity="1" d="M 80.019531 41.464844 C 80.019531 36.035156 75.617188 31.628906 70.183594 31.628906 C 64.753906 31.628906 60.351562 36.035156 60.351562 41.464844 C 60.351562 46.894531 64.753906 51.296875 70.183594 51.296875 C 75.617188 51.296875 80.019531 46.894531 80.019531 41.464844 Z M 80.019531 41.464844 "/>
<path fill-rule="nonzero" fill="rgb(100%, 100%, 100%)" fill-opacity="1" d="M 77.066406 36.96875 C 77.066406 34.875 75.371094 33.175781 73.273438 33.175781 C 71.179688 33.175781 69.480469 34.875 69.480469 36.96875 C 69.480469 39.0625 71.179688 40.761719 73.273438 40.761719 C 75.371094 40.761719 77.066406 39.0625 77.066406 36.96875 Z M 77.066406 36.96875 "/>
<path fill-rule="nonzero" fill="rgb(100%, 100%, 100%)" fill-opacity="1" d="M 68.78125 44.273438 C 68.78125 43.1875 67.898438 42.308594 66.8125 42.308594 C 65.726562 42.308594 64.847656 43.1875 64.847656 44.273438 C 64.847656 45.359375 65.726562 46.242188 66.8125 46.242188 C 67.898438 46.242188 68.78125 45.359375 68.78125 44.273438 Z M 68.78125 44.273438 "/>
<path fill-rule="nonzero" fill="rgb(94.119263%, 87.449646%, 76.075745%)" fill-opacity="1" d="M 40.402344 59.726562 L 40.402344 65.90625 C 40.402344 58.925781 46.0625 53.265625 53.046875 53.265625 L 56.980469 53.265625 C 63.960938 53.265625 69.621094 58.925781 69.621094 65.90625 L 69.621094 59.726562 C 69.621094 66.710938 63.960938 72.371094 56.980469 72.371094 L 53.046875 72.371094 C 46.0625 72.371094 40.402344 66.710938 40.402344 59.726562 Z M 40.402344 59.726562 "/>
<path fill-rule="nonzero" fill="rgb(47.840881%, 33.724976%, 21.961975%)" fill-opacity="1" stroke-width="2.09218" stroke-linecap="round" stroke-linejoin="round" stroke="rgb(43.136597%, 30.587769%, 20.391846%)" stroke-opacity="1" stroke-miterlimit="10" d="M -8.785941 0.568166 L -8.785941 -1.134399 C -8.785941 1.683503 -6.504032 3.969354 -3.686129 3.969354 L 3.683769 3.969354 C 6.501671 3.969354 8.787521 1.683503 8.787521 -1.134399 L 8.787521 0.568166 C 8.787521 -2.249736 6.501671 -4.535587 3.683769 -4.535587 L -3.686129 -4.535587 C -6.504032 -4.535587 -8.785941 -2.249736 -8.785941 0.568166 Z M -8.785941 0.568166 " transform="matrix(0.991152, 0, 0, -0.991152, 55.012889, 55.512357)"/>
<path fill="none" stroke-width="1.79329" stroke-linecap="round" stroke-linejoin="round" stroke="rgb(43.136597%, 30.587769%, 20.391846%)" stroke-opacity="1" stroke-miterlimit="10" d="M -0.00118041 -4.535587 L -0.00118041 -6.801732 M -7.371078 -6.801732 C -2.834847 -14.17163 2.836427 -14.17163 7.368718 -6.801732 " transform="matrix(0.991152, 0, 0, -0.991152, 55.012889, 55.512357)"/>
</svg>
