<svg xmlns="http://www.w3.org/2000/svg" viewBox="-10 -30 532 542" width="512" height="512"
     role="img" aria-label="Emoji Dr. Cuack: sorprendido">
  <g id="cara">
    <path d="M 212 88 C 204 46 220 14 250 0 C 252 24 266 32 282 26
             C 278 44 288 54 306 50 C 300 72 280 86 254 88 Z"
          fill="#FBD213" stroke="#0B1838" stroke-width="12" stroke-linejoin="round"/>
    <ellipse cx="256" cy="272" rx="214" ry="202" fill="#FBD213" stroke="#0B1838" stroke-width="13"/>
    <ellipse cx="250" cy="86" rx="26" ry="10" fill="#FBD213"/>
    <path d="M 116 148 C 158 84 240 56 314 66" fill="none" stroke="#FBE993" stroke-width="15" stroke-linecap="round" opacity=".9"/>
    <g>
      <circle cx="170" cy="246" r="46" fill="#FFF" stroke="#0B1838" stroke-width="11"/>
      <circle cx="342" cy="246" r="46" fill="#FFF" stroke="#0B1838" stroke-width="11"/>
      <circle cx="170" cy="252" r="16" fill="#0B1838"/><circle cx="342" cy="252" r="16" fill="#0B1838"/>
    </g>
    <g>
      <path d="M 186 316 C 190 298 218 288 256 288 C 294 288 322 298 326 316
               C 328 334 306 344 256 344 C 206 344 184 334 186 316 Z"
            fill="#FB7A12" stroke="#0B1838" stroke-width="13"/>
      <ellipse cx="256" cy="386" rx="34" ry="42" fill="#D8502E" stroke="#0B1838" stroke-width="12"/>
    </g>
    <g stroke="#0B1838" stroke-width="14" stroke-linecap="round" fill="none">
      <path d="M 134 168 C 148 152 190 148 206 160"/>
      <path d="M 306 160 C 322 148 364 152 378 168"/>
    </g>  </g>
</svg>
