<svg xmlns="http://www.w3.org/2000/svg" viewBox="-10 -30 532 542" width="512" height="512"
     role="img" aria-label="Emoji Dr. Cuack: fiesta">
  <g id="cara">
    <path d="M 212 88 C 204 46 220 14 250 0 C 252 24 266 32 282 26 C 278 44 288 54 306 50 C 300 72 280 86 254 88 Z" fill="#FBD213" stroke="#0B1838" stroke-width="12" stroke-linejoin="round"/>
    <ellipse cx="256" cy="272" rx="214" ry="202" fill="#FBD213" stroke="#0B1838" stroke-width="13"/>
    <ellipse cx="250" cy="86" rx="26" ry="10" fill="#FBD213"/>
    <path d="M 116 148 C 158 84 240 56 314 66" fill="none" stroke="#FBE993" stroke-width="15" stroke-linecap="round" opacity=".9"/><ellipse cx="118" cy="300" rx="26" ry="16" fill="#FFAFA3"/><ellipse cx="394" cy="300" rx="26" ry="16" fill="#FFAFA3"/>
    <g fill="none" stroke="#0B1838" stroke-width="18" stroke-linecap="round">
      <path d="M 136 250 C 148 226 192 226 204 250"/>
      <path d="M 308 250 C 320 226 364 226 376 250"/>
    </g>
    <g>
      <path d="M 176 318 C 178 298 212 286 256 286 C 300 286 334 298 336 318
               C 338 340 310 352 256 352 C 202 352 174 340 176 318 Z"
            fill="#FB7A12" stroke="#0B1838" stroke-width="13"/>
      <path d="M 196 348 C 212 398 300 398 316 348 C 314 408 286 434 256 434
               C 226 434 198 408 196 348 Z" fill="#D8502E" stroke="#0B1838" stroke-width="12" stroke-linejoin="round"/>
      <path d="M 222 404 C 244 418 268 418 290 404 C 280 424 232 424 222 404 Z" fill="#F07B62"/>
    </g>
    <g transform="rotate(14 256 60)">
      <path d="M 256 -12 L 322 116 C 280 138 232 138 190 116 Z" fill="#463782" stroke="#0B1838"
            stroke-width="12" stroke-linejoin="round"/>
      <circle cx="256" cy="-12" r="17" fill="#FFD54F" stroke="#0B1838" stroke-width="9"/>
      <circle cx="238" cy="72" r="9" fill="#FFD54F"/><circle cx="276" cy="46" r="8" fill="#F07B62"/>
      <circle cx="262" cy="100" r="8" fill="#8BE9A8"/>
    </g>    <g>
      <rect x="76" y="120" width="18" height="18" rx="4" fill="#F07B62" transform="rotate(24 85 129)"/>
      <rect x="436" y="150" width="16" height="16" rx="4" fill="#8BE9A8" transform="rotate(-18 444 158)"/>
      <circle cx="120" cy="80" r="9" fill="#7EC8F7"/>
      <circle cx="410" cy="86" r="8" fill="#FFD54F"/>
      <rect x="66" y="240" width="14" height="14" rx="3" fill="#FFD54F" transform="rotate(40 73 247)"/>
    </g>  </g>
</svg>
