<svg xmlns="http://www.w3.org/2000/svg" viewBox="-10 -30 532 542" width="512" height="512"
     role="img" aria-label="Emoji Dr. Cuack: guino">
  <g id="cara">
    <path d="M 212 88 C 204 46 220 14 250 0 C 252 24 266 32 282 26 C 278 44 288 54 306 50 C 300 72 280 86 254 88 Z" fill="#FBD213" stroke="#0B1838" stroke-width="12" stroke-linejoin="round"/>
    <ellipse cx="256" cy="272" rx="214" ry="202" fill="#FBD213" stroke="#0B1838" stroke-width="13"/>
    <ellipse cx="250" cy="86" rx="26" ry="10" fill="#FBD213"/>
    <path d="M 116 148 C 158 84 240 56 314 66" fill="none" stroke="#FBE993" stroke-width="15" stroke-linecap="round" opacity=".9"/><ellipse cx="118" cy="300" rx="26" ry="16" fill="#FFAFA3"/><ellipse cx="394" cy="300" rx="26" ry="16" fill="#FFAFA3"/>
    <g>
      <ellipse cx="170" cy="246" rx="35" ry="45" fill="#0B1838"/>
      <circle cx="158" cy="228" r="12" fill="#FFF"/><circle cx="180" cy="258" r="6" fill="#FFF"/>
      <path d="M 308 246 C 320 228 364 228 376 246" fill="none" stroke="#0B1838"
            stroke-width="18" stroke-linecap="round"/>
    </g>
    <g>
      <path d="M 176 322 C 178 302 212 290 256 290 C 300 290 334 302 336 322
               C 338 346 310 360 256 360 C 202 360 174 346 176 322 Z"
            fill="#FB7A12" stroke="#0B1838" stroke-width="13"/>
      <ellipse cx="256" cy="336" rx="52" ry="12" fill="#E9860D"/>
      <path d="M 210 354 C 226 384 286 384 302 354 C 298 388 278 404 256 404
               C 234 404 214 388 210 354 Z" fill="#D8502E" stroke="#0B1838" stroke-width="12" stroke-linejoin="round"/>
    </g>
  </g>
</svg>
