<svg xmlns="http://www.w3.org/2000/svg" viewBox="0 0 980 980" fill="none" shape-rendering="auto"><metadata xmlns:rdf="http://www.w3.org/1999/02/22-rdf-syntax-ns#" xmlns:xsi="http://www.w3.org/2001/XMLSchema-instance" xmlns:dc="http://purl.org/dc/elements/1.1/" xmlns:dcterms="http://purl.org/dc/terms/"><rdf:RDF><rdf:Description><dc:title>Lorelei</dc:title><dc:creator>Lisa Wischofsky</dc:creator><dc:source xsi:type="dcterms:URI">https://www.figma.com/community/file/1198749693280469639</dc:source><dcterms:license xsi:type="dcterms:URI">https://creativecommons.org/publicdomain/zero/1.0/</dcterms:license><dc:rights>Remix of „Lorelei” (https://www.figma.com/community/file/1198749693280469639) by „Lisa Wischofsky”, licensed under „CC0 1.0” (https://creativecommons.org/publicdomain/zero/1.0/)</dc:rights></rdf:Description></rdf:RDF></metadata><mask id="viewboxMask"><rect width="980" height="980" rx="0" ry="0" x="0" y="0" fill="#fff" /></mask><g mask="url(#viewboxMask)"><rect fill="#eaf2ec" width="980" height="980" x="0" y="0" /><g transform="translate(10 -60)"><path d="M663 170c2 0 3 2 4 3 2 6 3 12 2 18 0 17-6 33-14 48l10-3a86 86 0 0 1 68 15c4 3 9 10 8 16l-3-1-12-8c-8-4-16-7-24-8-14-2-28-1-41 2 16 5 29 14 42 24a172 172 0 0 1 53 94c3 14 4 27 5 41 1 20-1 42-2 62 0 16 1 32 4 48 3 11 7 21 12 30 7 11 14 22 23 31 11 13 24 24 32 39 8 16 13 34 13 52 0 12-1 24-5 36-1 3-1 7-4 8-2 2-4 0-4-3 3-13 4-27 4-41-1-18-7-34-17-49s-26-25-39-39l11 24 7 14c12 21 18 43 21 67 1 13 1 26-2 38-2 9-6 18-10 26l-11 13c-2 2-4 2-5 5-2 2-4 3-7 2-2-2-2-4-1-6 3-9 1-19-2-28-2 13-7 25-14 35-9 13-19 25-32 33-7 6-15 11-23 14-7 2-14 4-21 1-2 0-5 1-6-2v-11c-15 8-30 16-46 19-9 3-18 4-27 3-12 0-23-2-34-7-4-2-9-2-13-3-26-5-52-6-78-6-38-1-75 2-113 6l-17 1-17 1c-29 2-57 0-84-9-14-4-26-11-37-20-2 5-1 9-2 14l-1 8c-3 3-7 3-10 2-8-2-13-7-19-12-9-6-16-15-20-25l-7-21c-4-18-2-36 0-54 2-15 4-30 8-44-9 22-15 47-17 71-2 23 2 46 10 68 1 2 3 5 1 7h-4c-3-1-4-5-6-7a176 176 0 0 1-11-78c2-25 9-49 17-73l17-42c10-26 18-51 26-77 2-8 2-16 2-24l3-47c2-16 4-33 9-49l5-20c5-23 15-45 29-64 20-28 47-49 76-66 47-25 100-38 152-41 44-1 90 4 131 19a105 105 0 0 0 55-66l2-4Z" fill="#3aa0e0"/><path d="M486 236c57-2 115 18 159 56a209 209 0 0 1 73 190c-1 4-1 8-4 12l-1-3v-33a215 215 0 0 0-172-206 235 235 0 0 0-270 153c-12 37-14 78-6 116 6-2 12-2 17-2 2 1 5 1 6 3s0 3-1 4l-12 4c-14 3-27 8-37 18a63 63 0 0 0-22 45c0 12 3 24 8 35 8 13 19 24 33 31 18 10 41 13 62 7 2-1 4-2 6-1s3 4 4 6l15 30a215 215 0 0 0 72 63c28 15 59 21 90 26 3 1 8 1 10 4 1 2 0 3-2 4l-11 1a231 231 0 0 1-147-62c5 18 8 36 8 54 0 12-2 23-6 34-5 10-11 18-19 26a196 196 0 0 1-60 43c-1-1 1-2 2-3l17-14c13-12 25-23 35-38a93 93 0 0 0 17-65l-4-39-2-10-12-17c-5-10-11-20-13-31a93 93 0 0 1-96-31 81 81 0 0 1-19-51c0-12 3-23 8-34 9-16 23-29 40-36-8-31-8-62-3-93 8-40 26-77 51-108 45-54 115-87 186-88Z" fill="#000"/><path d="M541 252a214 214 0 0 1 172 206v33c-1 5-2 10-1 15-2 2-3 3-3 5-3 18-1 37 1 55 4 29 6 59 2 88-3 28-13 56-30 79-16 21-38 34-62 43-15 6-30 9-45 13-11 2-22 4-32 8 1 2 4 1 6 2 12 1 24-1 36-2-5 8-8 17-9 26-2 10 2 19 9 26 6 7 15 11 24 14 5 2 11 3 17 3 7 9 13 18 14 30 2 12-1 24-8 34-9 14-22 23-37 30-18 9-38 15-57 18a352 352 0 0 1-192-23c-18-10-38-23-48-42-4-7-8-16-6-24 18-10 33-23 47-38 8-8 14-16 19-26 4-11 6-22 6-34 0-18-3-36-8-54a235 235 0 0 0 147 62l11-1c2-1 3-2 2-4-2-3-7-3-10-4-31-5-62-11-90-26-18-10-36-22-50-37-8-8-16-17-22-26l-15-30c-1-2-2-5-4-6s-4 0-6 1a82 82 0 0 1-95-38c-5-11-8-23-8-35 1-17 9-34 22-45 10-10 23-15 37-18l12-4c1-1 2-2 1-4s-4-2-6-3c-5 0-11 0-17 2-8-38-6-79 6-116a236 236 0 0 1 270-153Z" fill="#ffffff"/><path d="m712 506 3 3 1 13 3 45c3 20 5 40 5 60 0 16-1 32-5 47-6 28-20 56-40 76a174 174 0 0 1-88 46c-1 9-4 16-4 25-1 6 2 10 5 15 8 8 18 14 28 19l18 9c-3 3-8 1-12 2-6 0-12-1-17-3-9-3-18-7-24-14-7-7-11-16-9-26 1-9 4-18 9-26-12 1-24 3-36 2-2-1-5 0-6-2 10-4 21-6 32-8 15-4 30-7 45-13 24-9 46-22 62-43 17-23 27-51 30-79 4-29 2-59-2-88-2-18-4-37-1-55 0-2 1-3 3-5ZM262 566c6 0 12 1 15 6 2 3 2 7 1 10-3 8-9 14-11 22-1 4 0 7 3 9 7 5 16 7 24 10l-2 2h-11c-6-1-12-2-17-5-5-4-9-11-7-18 2-9 9-15 12-23-7-4-14-2-20-8 3-4 8-6 13-5Z" fill="#000"/><g fill="#000000"><path d="M669 473c8-1 16 1 22 6 3 3 6 7 6 12s-5 9-10 8c-6-1-7-6-11-9-3-2-6-3-10-3 7 10 7 23 3 34-2 9-8 16-16 19-7 3-14 0-18-5-5-5-7-13-7-20l-7 15c-1 2 0 4-3 5-2-6-1-11 1-17 6-16 17-30 32-38 5-4 11-6 18-7ZM457 484c26 1 51 17 63 40 2 2 4 6 3 9 0 2-1 2-3 1-3-2-4-5-6-8l-12-13c2 11 0 23-7 32-6 7-16 11-25 10-13-2-25-13-27-26-3-10 0-21 6-30-14 3-27 9-39 18-2 1-2 4-1 6l8 11c11 10 24 17 37 21l11 4c-5 3-12 3-18 2-13-3-25-10-34-19-6-5-11-12-14-19-1-4-4-6-4-10 0-5 5-9 9-12 15-12 34-18 53-17Z"/><path d="M670 530c2 4 0 9-2 12-5 5-12 9-19 10-8 1-17 2-25-2-1-1-4-3-2-5h7c11 1 22-3 31-8l10-7Z"/></g><path d="M524 402c7 3 12 9 15 16 4 6 6 12 4 19-1 2-2 5-4 3-3-2-5-6-6-9l-14 2-26 3-39 4c-12 1-24 0-36-1-3 0-7-1-9-3-3-2-2-7 1-8 9-3 20-2 30-4 7-1 14-4 20-6 9-3 17-7 26-9l20-5c5-1 12-4 18-2ZM631 404c11 0 19 6 30 8 6 2 14 1 20 5 2 1 3 4 2 7-2 2-5 2-8 2l-14 1-25 6-23 2-5 18-3 3-2-5c-1-10 0-21 5-30 2-4 4-9 8-12 4-4 10-6 15-5Z" fill="#000000"/><path d="m591 528 2 2 7 22c4 8 10 15 15 23 4 6 6 13 5 20-1 6-4 12-9 16-7 7-16 12-25 16-5 3-11 4-17 2l5-4c11-9 25-14 36-24 2-2 4-6 4-9-1-7-5-11-8-16-5-9-10-16-13-25-2-7-4-16-2-23Z" fill="#000000"/><path d="M607 684c3 2 2 6 1 9-2 8-4 15-9 22-5 5-10 10-17 12-10 4-22 2-31-3-4-2-9-5-11-9-1-1-2-3-1-4 2-2 5-3 8-3 9 1 18 6 27 7 7 1 13-3 17-8 5-6 8-15 12-22 1-2 2-2 4-1Z" fill="#000000"/><path fill-rule="evenodd" clip-rule="evenodd" d="M482 429c13 2 26 7 37 15 3-2 7-2 10 0a94 94 0 0 1 39 90c9-6 20-8 30-5-1-34 16-68 44-87 11-7 25-12 39-12 9 0 19 2 27 7l4 1 5 1c10 7 18 16 23 26 8 16 10 33 8 51-3 29-20 57-45 72-14 8-31 13-47 11-13-2-25-8-35-17-9-8-15-19-19-31-1-4-6-7-9-9-9-3-18 0-26 5l-5 7c-7 19-21 36-39 47a99 99 0 0 1-57 14c-31-1-60-18-76-45a92 92 0 0 1 30-127c18-11 41-16 62-14Zm35 19 1 4c0 2 2 3 4 5 12 8 22 19 27 33a81 81 0 0 1-56 111c-26 6-55-1-75-19a82 82 0 0 1-23-90c9-25 32-45 59-51 21-5 43-2 63 6v1Zm190-1c-1-1-1-2-3-2-8-4-17-5-26-4-15 2-29 9-40 20a88 88 0 0 0-26 77c2 13 9 26 19 36 9 7 19 11 30 12 14 1 27-4 39-11 25-18 40-52 35-82a63 63 0 0 0-23-41l-4-3-1-2Z" fill="#000000"/><path d="m663 170 4 3c2 5 2 11 2 16 0 18-6 35-15 50 13-4 26-6 40-4 13 2 28 6 38 16 5 4 10 10 9 16l-6-3c-7-5-14-9-22-11-19-6-38-5-56 0l17 8c23 13 42 32 52 56 5 13 7 26 4 39s-9 26-17 36a151 151 0 0 1-51 42c-4 3-9 5-14 5l10-12c9-7 15-18 16-29 2-13 0-26-4-38-5-19-15-35-28-50 8 27 6 56-4 81-6 14-15 26-26 36-7 7-16 13-26 16-3 0-6 1-8-1l7-13c4-9 6-18 6-27 2-22-2-44-7-65l-6-18c1 20-1 39-8 57a94 94 0 0 1-61 56c-4 1-9 3-13-1 6-4 12-7 17-12 9-6 17-13 24-21l11-18c8-16 12-34 12-52-2 12-7 23-12 34-11 19-24 36-40 51-14 14-30 25-49 31-4 1-7 2-11 1l-4-2c0-7 3-13 4-19 4-16 7-32 7-48a181 181 0 0 1-56 65c-16 11-32 20-50 27a253 253 0 0 0-1 89c4 20 14 39 27 54l4 5c-6 0-9-4-13-7a97 97 0 0 1-29-46c-1 12 0 24 1 37 0 5 1 10-1 15l-4-3-11-7c-10-7-19-14-27-23-11-12-19-27-23-43l-3-6c-14-13-27-28-36-45-10-19-16-39-17-60-2-32 7-63 24-90 19-31 48-55 79-73a354 354 0 0 1 280-28c3 1 6 4 10 2a102 102 0 0 0 52-63l2-6Z" fill="#3aa0e0"/></g><g transform="translate(10 -60)"></g></g></svg>